<?xml version="1.0" encoding="UTF-8" standalone="no"?>
<!DOCTYPE svg PUBLIC "-//W3C//DTD SVG 1.1//EN" "http://www.w3.org/Graphics/SVG/1.1/DTD/svg11.dtd">
<svg width="100%" height="100%" viewBox="0 0 800 800" version="1.1" xmlns="http://www.w3.org/2000/svg" xmlns:xlink="http://www.w3.org/1999/xlink" xml:space="preserve" xmlns:serif="http://www.serif.com/" style="fill-rule:evenodd;clip-rule:evenodd;stroke-linejoin:round;stroke-miterlimit:2;">
    <path d="M398.625,32C287.433,32.673 191.714,117.846 177.75,228.125C174.494,253.884 175.905,278.895 180.875,302.438C180.895,302.552 180.915,302.667 180.938,302.781L251.438,602.969C256.526,624.565 275.987,640 298.188,640L336,640L336,768L368,768L368,640L432,640L432,768L464,768L464,640L502.781,640C525.052,640 544.567,624.485 549.562,602.781L620.156,296.188C620.214,295.939 620.266,295.689 620.312,295.438C622.575,282.778 624,269.617 624,256C624,132.024 522.76,31.26 398.625,32ZM398.812,64C505.589,63.364 592,149.384 592,256C592,267.365 590.792,278.548 588.812,289.656C588.805,289.698 588.82,289.741 588.812,289.781L574.438,352.156C540.009,353.015 512,381.377 512,416C512,440.619 526.116,462.028 546.688,472.719L518.375,595.594C516.683,602.946 510.334,608 502.781,608L298.188,608C290.66,608 284.321,602.989 282.594,595.656L212.188,295.812C207.909,275.547 206.708,254.237 209.5,232.156C221.424,137.988 303.925,64.575 398.812,64ZM399.75,95.781C397.549,95.817 395.378,96.306 393.375,97.219C350.409,99.066 312.87,118.148 285.156,147.469C279.491,149.487 275.424,154.535 274.656,160.5C258.354,181.813 245.43,205.809 241.531,233.625C241.531,233.656 241.531,233.687 241.531,233.719C241.486,234.051 241.453,234.426 241.406,234.844C241.406,234.854 241.406,234.865 241.406,234.875C238.297,263.05 260.876,287.969 289.125,287.969L509.75,287.969C510.125,287.992 510.5,288.003 510.875,288C538.376,288 560.942,264.379 558.75,236.688L558.75,236.656C558.648,235.343 558.518,234.174 558.375,233.125C558.375,233.094 558.375,233.062 558.375,233.031C554.401,205.419 541.497,181.612 525.281,160.438C524.492,154.55 520.487,149.567 514.906,147.531C487.181,118.169 449.602,99.059 406.594,97.219C404.446,96.241 402.109,95.75 399.75,95.781ZM384.25,130.906C385.576,138.541 392.267,144.17 400.016,144.17C407.765,144.17 414.455,138.541 415.781,130.906C442.996,134.376 467.656,144.921 486.719,162.656L486.656,162.719C483.59,165.727 481.86,169.846 481.86,174.142C481.86,182.92 489.083,190.144 497.862,190.144C501.013,190.144 504.095,189.213 506.719,187.469C516.429,202.547 524.02,219.027 526.688,237.562C526.734,237.918 526.788,238.445 526.844,239.156C526.844,239.167 526.844,239.177 526.844,239.188C527.573,248.321 520.348,255.927 510.938,255.969C510.917,255.969 427.469,255.969 427.469,255.969C424.671,251.241 420.732,247.291 416,244.5L416,192C416.001,191.925 416.002,191.849 416.002,191.774C416.002,182.996 408.778,175.772 400,175.772C391.222,175.772 383.998,182.996 383.998,191.774C383.998,191.849 383.999,191.925 384,192L384,244.5C379.268,247.291 375.329,251.241 372.531,255.969L289.125,255.969C279.466,255.969 272.157,247.913 273.188,238.406L273.188,238.375C273.2,238.263 273.237,238.165 273.25,238.062C275.876,219.327 283.538,202.686 293.344,187.469C295.949,189.174 298.996,190.083 302.109,190.083C310.887,190.083 318.111,182.86 318.111,174.081C318.111,169.785 316.38,165.664 313.312,162.656L313.281,162.625C332.345,144.897 357.036,134.37 384.25,130.906ZM335.75,367.781C326.985,367.918 319.88,375.234 320,384L320,480C319.999,480.075 319.998,480.151 319.998,480.226C319.998,489.004 327.222,496.228 336,496.228C344.778,496.228 352.002,489.004 352.002,480.226C352.002,480.151 352.001,480.075 352,480L352,384C352.001,383.927 352.002,383.854 352.002,383.781C352.002,375.003 344.778,367.779 336,367.779C335.917,367.779 335.833,367.78 335.75,367.781ZM566.781,385.5L554.344,439.469C548.028,433.653 544,425.386 544,416C544,401.375 553.545,389.418 566.781,385.5Z" style="fill:rgb(229,233,240);fill-rule:nonzero;"/>
</svg>
